<?xml version="1.0" encoding="iso-8859-1"?>
<!-- Generator: Adobe Illustrator 19.0.0, SVG Export Plug-In . SVG Version: 6.00 Build 0)  -->
<svg version="1.1" id="Layer_1" xmlns="http://www.w3.org/2000/svg" xmlns:xlink="http://www.w3.org/1999/xlink" x="0px" y="0px"
	 viewBox="0 0 511.999 511.999" style="enable-background:new 0 0 511.999 511.999;" xml:space="preserve">
<g>
	<g>
		<path d="M511.153,181.868c-1.359-2.716-4.133-4.432-7.17-4.432h-89.787c-2.523,0-4.9,1.188-6.413,3.207l-61.729,82.305H165.945
			l-61.729-82.305c-1.514-2.019-3.891-3.207-6.413-3.207H8.016c-3.037,0-5.813,1.716-7.17,4.432s-1.065,5.965,0.757,8.395
			l62.53,83.374v228.209c0,4.427,3.588,8.017,8.017,8.017h367.699c4.428,0,8.017-3.589,8.017-8.017V273.636l62.53-83.374
			C512.218,187.833,512.51,184.584,511.153,181.868z M174.229,278.981h69.478v30.998h-69.478V278.981z M24.05,193.469h69.745
			l52.109,69.478H76.158L24.05,193.469z M431.833,493.828h-73.754V467.64c0-4.427-3.588-8.017-8.017-8.017
			c-4.428,0-8.017,3.589-8.017,8.017v26.188H80.167V278.981h78.029v39.015c0,4.427,3.588,8.017,8.017,8.017h85.511
			c4.428,0,8.017-3.589,8.017-8.017v-39.015h82.305v152.317c0,4.427,3.588,8.017,8.017,8.017c4.428,0,8.017-3.589,8.017-8.017
			V278.981h73.754V493.828z M435.841,262.947h-69.745l52.109-69.478h69.745L435.841,262.947z"/>
	</g>
</g>
<g>
	<g>
		<path d="M304.004,349.092c-4.542-4.545-10.581-7.046-17.006-7.046s-12.464,2.501-17.006,7.044l-70.643,70.643l-34.301-34.3
			c-4.542-4.543-10.581-7.045-17.006-7.045s-12.464,2.501-17.005,7.044c-4.543,4.543-7.045,10.582-7.045,17.006
			s2.502,12.463,7.044,17.006l51.307,51.307c4.542,4.543,10.581,7.045,17.006,7.045s12.464-2.502,17.006-7.044l87.648-87.649
			c4.543-4.543,7.045-10.582,7.045-17.006S308.545,353.633,304.004,349.092z M292.666,371.764l-87.649,87.649
			c-1.514,1.514-3.527,2.347-5.668,2.347c-2.141,0-4.155-0.834-5.668-2.348l-51.308-51.307c-7.313-7.317,4.024-18.655,11.337-11.337
			l39.97,39.969c3.132,3.131,8.207,3.131,11.338,0l76.313-76.313C288.644,353.11,299.981,364.448,292.666,371.764z"/>
	</g>
</g>
<g>
	<g>
		<path d="M357.504,122.612c-1.219-3.041-4.164-5.034-7.442-5.034h-34.739V10.154c0-4.427-3.588-8.017-8.017-8.017H204.693
			c-4.428,0-8.017,3.589-8.017,8.017V33.67c0,4.427,3.588,8.017,8.017,8.017s8.017-3.589,8.017-8.017V18.171h86.58v107.424
			c0,4.427,3.588,8.017,8.017,8.017h22.747L256,204.299l-74.054-70.688h22.747c4.428,0,8.017-3.589,8.017-8.017v-57.72
			c0-4.427-3.588-8.017-8.017-8.017s-8.017,3.589-8.017,8.017v49.704h-34.739c-3.276,0-6.223,1.993-7.442,5.034
			c-1.219,3.042-0.464,6.518,1.906,8.781l94.063,89.787c1.549,1.478,3.542,2.218,5.536,2.218c1.993,0,3.986-0.739,5.536-2.218
			l94.063-89.787C357.968,129.13,358.722,125.654,357.504,122.612z"/>
	</g>
</g>
<g>
</g>
<g>
</g>
<g>
</g>
<g>
</g>
<g>
</g>
<g>
</g>
<g>
</g>
<g>
</g>
<g>
</g>
<g>
</g>
<g>
</g>
<g>
</g>
<g>
</g>
<g>
</g>
<g>
</g>
</svg>
