<?xml version="1.0" encoding="iso-8859-1"?>
<!-- Generator: Adobe Illustrator 19.0.0, SVG Export Plug-In . SVG Version: 6.00 Build 0)  -->
<svg version="1.1" id="Layer_1" xmlns="http://www.w3.org/2000/svg" xmlns:xlink="http://www.w3.org/1999/xlink" x="0px" y="0px"
	 viewBox="0 0 512 512" style="enable-background:new 0 0 512 512;" xml:space="preserve">
<g>
	<g>
		<g>
			<path d="M405.333,0H298.667c-0.655,0-1.266,0.164-1.914,0.194l-0.003-0.017l-0.204,0.038c-3.69,0.185-7.221,0.875-10.608,1.943
				l-96.917,17.749c-9.077,0.699-17.375,4.35-24.124,10.056l-0.043-0.066L86.563,80.802C72.438,89.625,64,104.844,64,121.51
				c0,9.51,2.792,18.708,7.667,25.979l184.68,325.266c1.776,21.908,19.97,39.245,42.32,39.245h106.667
				C428.854,512,448,492.865,448,469.333V42.667C448,19.135,428.854,0,405.333,0z M89.813,136.302
				c-2.938-4.396-4.479-9.51-4.479-14.792c0-9.26,4.688-17.719,12.688-22.719l51.698-33.604c0.223,3.374,0.784,6.725,1.844,9.979
				l93.195,333.988L89.813,136.302z M256,42.667v327.44L171.979,69.021c-2.021-6.26-1.083-12.979,2.583-18.438
				c3.667-5.469,9.521-8.896,17.188-9.552l66.747-12.189C256.991,33.202,256,37.802,256,42.667z M426.667,469.333
				c0,11.76-9.563,21.333-21.333,21.333H298.667c-11.771,0-21.333-9.573-21.333-21.333V42.667c0-8.813,5.371-16.393,13.016-19.642
				l9.264-1.691h105.72c11.771,0,21.333,9.573,21.333,21.333V469.333z"/>
			<path d="M352,384c-17.646,0-32,14.354-32,32c0,17.646,14.354,32,32,32c17.646,0,32-14.354,32-32C384,398.354,369.646,384,352,384
				z M352,426.667c-5.875,0-10.667-4.781-10.667-10.667c0-5.885,4.792-10.667,10.667-10.667s10.667,4.781,10.667,10.667
				C362.667,421.885,357.875,426.667,352,426.667z"/>
			<path d="M394.667,42.667h-85.333c-5.896,0-10.667,4.771-10.667,10.667v64c0,5.896,4.771,10.667,10.667,10.667h85.333
				c5.896,0,10.667-4.771,10.667-10.667v-64C405.333,47.438,400.563,42.667,394.667,42.667z M384,106.667h-64V64h64V106.667z"/>
			<path d="M394.667,149.333h-85.333c-5.896,0-10.667,4.771-10.667,10.667v64c0,5.896,4.771,10.667,10.667,10.667h85.333
				c5.896,0,10.667-4.771,10.667-10.667v-64C405.333,154.104,400.563,149.333,394.667,149.333z M384,213.333h-64v-42.667h64V213.333
				z"/>
			<path d="M394.667,256h-85.333c-5.896,0-10.667,4.771-10.667,10.667v64c0,5.896,4.771,10.667,10.667,10.667h85.333
				c5.896,0,10.667-4.771,10.667-10.667v-64C405.333,260.771,400.563,256,394.667,256z M384,320h-64v-42.667h64V320z"/>
		</g>
	</g>
</g>
<g>
</g>
<g>
</g>
<g>
</g>
<g>
</g>
<g>
</g>
<g>
</g>
<g>
</g>
<g>
</g>
<g>
</g>
<g>
</g>
<g>
</g>
<g>
</g>
<g>
</g>
<g>
</g>
<g>
</g>
</svg>
